<mxfile host="drawio-plugin" modified="2021-12-08T08:02:02.400Z" agent="5.0 (Windows NT 6.2; Win64; x64) AppleWebKit/537.36 (KHTML, like Gecko) Chrome/89.0.4389.114 Safari/537.36" version="14.7.4" etag="MZ3uTACkyRZTV3RykkMp" type="embed"><diagram id="HZT223DvQddshFGfQkKC" name="Page-1"><mxGraphModel dx="1106" dy="1102" grid="1" gridSize="10" guides="1" tooltips="1" connect="1" arrows="1" fold="1" page="1" pageScale="1" pageWidth="850" pageHeight="1100" math="0" shadow="0"><root><mxCell id="0"/><mxCell id="1" parent="0"/><mxCell id="88" value="&lt;font style=&quot;font-size: 14px&quot;&gt;&lt;font color=&quot;#007fff&quot; style=&quot;font-size: 14px&quot;&gt;&amp;nbsp;БМС1&lt;br&gt;&lt;br&gt;&lt;br&gt;&lt;br&gt;&lt;br&gt;&lt;/font&gt;&lt;br&gt;&lt;/font&gt;" style="rounded=1;whiteSpace=wrap;html=1;fillColor=none;dashed=1;align=left;shadow=0;strokeColor=#007FFF;" vertex="1" parent="1"><mxGeometry x="49" y="360" width="470" height="690" as="geometry"/></mxCell><mxCell id="73" value="&lt;font style=&quot;font-size: 12px&quot;&gt;&lt;font color=&quot;#00ff00&quot; style=&quot;font-size: 12px&quot;&gt;БАС&lt;br&gt;&lt;br&gt;&lt;br&gt;&lt;br&gt;&lt;br&gt;&lt;/font&gt;&lt;br&gt;&lt;/font&gt;" style="rounded=0;whiteSpace=wrap;html=1;fillColor=none;dashed=1;align=left;strokeColor=#00FF00;" vertex="1" parent="1"><mxGeometry x="250" y="270" width="450" height="83.5" as="geometry"/></mxCell><mxCell id="10" style="edgeStyle=orthogonalEdgeStyle;rounded=0;orthogonalLoop=1;jettySize=auto;html=1;exitX=0.5;exitY=1;exitDx=0;exitDy=0;entryX=0.5;entryY=0;entryDx=0;entryDy=0;" edge="1" parent="1" source="11" target="13"><mxGeometry relative="1" as="geometry"/></mxCell><mxCell id="11" value="Начало" style="ellipse;whiteSpace=wrap;html=1;" vertex="1" parent="1"><mxGeometry x="275" y="30" width="110" height="40" as="geometry"/></mxCell><mxCell id="12" style="edgeStyle=orthogonalEdgeStyle;rounded=0;orthogonalLoop=1;jettySize=auto;html=1;exitX=0.5;exitY=1;exitDx=0;exitDy=0;entryX=0.5;entryY=0;entryDx=0;entryDy=0;" edge="1" parent="1" source="13" target="16"><mxGeometry relative="1" as="geometry"/></mxCell><mxCell id="13" value="Начальные присвоения" style="rounded=0;whiteSpace=wrap;html=1;" vertex="1" parent="1"><mxGeometry x="270" y="90" width="120" height="40" as="geometry"/></mxCell><mxCell id="64" style="edgeStyle=orthogonalEdgeStyle;rounded=0;orthogonalLoop=1;jettySize=auto;html=1;exitX=1;exitY=0.5;exitDx=0;exitDy=0;" edge="1" parent="1" source="14" target="53"><mxGeometry relative="1" as="geometry"/></mxCell><mxCell id="83" style="edgeStyle=orthogonalEdgeStyle;rounded=0;orthogonalLoop=1;jettySize=auto;html=1;exitX=0;exitY=0.5;exitDx=0;exitDy=0;entryX=0.5;entryY=0;entryDx=0;entryDy=0;" edge="1" parent="1" source="14" target="31"><mxGeometry relative="1" as="geometry"/></mxCell><mxCell id="14" value="ОС&lt;br&gt;поступление&lt;br&gt;заявки" style="rhombus;whiteSpace=wrap;html=1;" vertex="1" parent="1"><mxGeometry x="270" y="270" width="120" height="80" as="geometry"/></mxCell><mxCell id="15" style="edgeStyle=orthogonalEdgeStyle;rounded=0;orthogonalLoop=1;jettySize=auto;html=1;exitX=0.5;exitY=1;exitDx=0;exitDy=0;entryX=0.5;entryY=0;entryDx=0;entryDy=0;" edge="1" parent="1" source="16" target="14"><mxGeometry relative="1" as="geometry"/></mxCell><mxCell id="16" value="Выбирается ОС с приоритетом 0 и минимальным Тос" style="rounded=0;whiteSpace=wrap;html=1;" vertex="1" parent="1"><mxGeometry x="270" y="170" width="120" height="60" as="geometry"/></mxCell><mxCell id="17" value="&lt;font style=&quot;font-size: 10px&quot;&gt;&lt;font color=&quot;#ff3333&quot;&gt;БООС&lt;/font&gt;&lt;br&gt;&lt;br&gt;&lt;br&gt;&lt;br&gt;&lt;br&gt;&lt;/font&gt;" style="rounded=1;whiteSpace=wrap;html=1;fillColor=none;strokeColor=#FF3333;dashed=1;align=left;" vertex="1" parent="1"><mxGeometry x="235" y="158.75" width="190" height="82.5" as="geometry"/></mxCell><mxCell id="86" style="edgeStyle=orthogonalEdgeStyle;rounded=0;orthogonalLoop=1;jettySize=auto;html=1;exitX=0.5;exitY=1;exitDx=0;exitDy=0;" edge="1" parent="1" source="19"><mxGeometry relative="1" as="geometry"><mxPoint x="140" y="1070" as="targetPoint"/></mxGeometry></mxCell><mxCell id="19" value="Отказ&amp;nbsp;текущии заявки" style="rounded=0;whiteSpace=wrap;html=1;" vertex="1" parent="1"><mxGeometry x="80" y="550" width="120" height="60" as="geometry"/></mxCell><mxCell id="81" style="edgeStyle=orthogonalEdgeStyle;rounded=0;orthogonalLoop=1;jettySize=auto;html=1;exitX=1;exitY=0.5;exitDx=0;exitDy=0;" edge="1" parent="1" source="22" target="24"><mxGeometry relative="1" as="geometry"/></mxCell><mxCell id="82" style="edgeStyle=orthogonalEdgeStyle;rounded=0;orthogonalLoop=1;jettySize=auto;html=1;exitX=0;exitY=0.5;exitDx=0;exitDy=0;entryX=0.5;entryY=0;entryDx=0;entryDy=0;" edge="1" parent="1" source="22" target="19"><mxGeometry relative="1" as="geometry"/></mxCell><mxCell id="22" value="Буфер полон" style="rhombus;whiteSpace=wrap;html=1;" vertex="1" parent="1"><mxGeometry x="189" y="450" width="120" height="80" as="geometry"/></mxCell><mxCell id="35" style="edgeStyle=orthogonalEdgeStyle;rounded=0;orthogonalLoop=1;jettySize=auto;html=1;exitX=0.5;exitY=1;exitDx=0;exitDy=0;entryX=0.5;entryY=0;entryDx=0;entryDy=0;" edge="1" parent="1" source="24" target="34"><mxGeometry relative="1" as="geometry"/></mxCell><mxCell id="24" value="Помещение заявки в буфер" style="rounded=0;whiteSpace=wrap;html=1;" vertex="1" parent="1"><mxGeometry x="290" y="550" width="120" height="60" as="geometry"/></mxCell><mxCell id="25" value="да" style="text;html=1;strokeColor=none;fillColor=none;align=center;verticalAlign=middle;whiteSpace=wrap;rounded=0;" vertex="1" parent="1"><mxGeometry x="149" y="470" width="40" height="20" as="geometry"/></mxCell><mxCell id="26" value="нет" style="text;html=1;strokeColor=none;fillColor=none;align=center;verticalAlign=middle;whiteSpace=wrap;rounded=0;" vertex="1" parent="1"><mxGeometry x="309" y="470" width="40" height="20" as="geometry"/></mxCell><mxCell id="84" style="edgeStyle=orthogonalEdgeStyle;rounded=0;orthogonalLoop=1;jettySize=auto;html=1;exitX=1;exitY=0.5;exitDx=0;exitDy=0;" edge="1" parent="1" source="31" target="22"><mxGeometry relative="1" as="geometry"/></mxCell><mxCell id="31" value="Генерация следующей заявки" style="rounded=0;whiteSpace=wrap;html=1;" vertex="1" parent="1"><mxGeometry x="97" y="371" width="120" height="60" as="geometry"/></mxCell><mxCell id="37" style="edgeStyle=orthogonalEdgeStyle;rounded=0;orthogonalLoop=1;jettySize=auto;html=1;exitX=0.5;exitY=1;exitDx=0;exitDy=0;entryX=0.5;entryY=0;entryDx=0;entryDy=0;" edge="1" parent="1" source="34" target="36"><mxGeometry relative="1" as="geometry"/></mxCell><mxCell id="85" style="edgeStyle=orthogonalEdgeStyle;rounded=0;orthogonalLoop=1;jettySize=auto;html=1;exitX=1;exitY=0.5;exitDx=0;exitDy=0;" edge="1" parent="1" source="34"><mxGeometry relative="1" as="geometry"><mxPoint x="537" y="1070" as="targetPoint"/><Array as="points"><mxPoint x="537" y="680"/><mxPoint x="537" y="1070"/></Array></mxGeometry></mxCell><mxCell id="34" value="Есть&lt;br&gt;свободный&lt;br&gt;прибор" style="rhombus;whiteSpace=wrap;html=1;" vertex="1" parent="1"><mxGeometry x="290" y="640" width="120" height="80" as="geometry"/></mxCell><mxCell id="68" style="edgeStyle=orthogonalEdgeStyle;rounded=0;orthogonalLoop=1;jettySize=auto;html=1;exitX=0;exitY=0.5;exitDx=0;exitDy=0;entryX=0.5;entryY=0;entryDx=0;entryDy=0;" edge="1" parent="1" source="36" target="40"><mxGeometry relative="1" as="geometry"/></mxCell><mxCell id="69" style="edgeStyle=orthogonalEdgeStyle;rounded=0;orthogonalLoop=1;jettySize=auto;html=1;exitX=1;exitY=0.5;exitDx=0;exitDy=0;" edge="1" parent="1" source="36" target="42"><mxGeometry relative="1" as="geometry"/></mxCell><mxCell id="36" value="Количество свободный&lt;br&gt;прибор = 1" style="rhombus;whiteSpace=wrap;html=1;" vertex="1" parent="1"><mxGeometry x="290" y="754" width="120" height="80" as="geometry"/></mxCell><mxCell id="39" value="да" style="text;html=1;strokeColor=none;fillColor=none;align=center;verticalAlign=middle;whiteSpace=wrap;rounded=0;" vertex="1" parent="1"><mxGeometry x="346" y="724" width="40" height="20" as="geometry"/></mxCell><mxCell id="70" style="edgeStyle=orthogonalEdgeStyle;rounded=0;orthogonalLoop=1;jettySize=auto;html=1;exitX=0.5;exitY=1;exitDx=0;exitDy=0;entryX=0.5;entryY=0;entryDx=0;entryDy=0;" edge="1" parent="1" source="40" target="44"><mxGeometry relative="1" as="geometry"/></mxCell><mxCell id="40" value="Выберить&lt;br&gt;единственный прибор" style="rounded=0;whiteSpace=wrap;html=1;" vertex="1" parent="1"><mxGeometry x="189" y="835" width="120" height="60" as="geometry"/></mxCell><mxCell id="74" style="edgeStyle=orthogonalEdgeStyle;rounded=0;orthogonalLoop=1;jettySize=auto;html=1;exitX=0.5;exitY=1;exitDx=0;exitDy=0;entryX=0.5;entryY=0;entryDx=0;entryDy=0;" edge="1" parent="1" source="42" target="44"><mxGeometry relative="1" as="geometry"/></mxCell><mxCell id="42" value="Выберить прибор с наивысшим приоритетом" style="rounded=0;whiteSpace=wrap;html=1;" vertex="1" parent="1"><mxGeometry x="390" y="835" width="120" height="60" as="geometry"/></mxCell><mxCell id="87" style="edgeStyle=orthogonalEdgeStyle;rounded=0;orthogonalLoop=1;jettySize=auto;html=1;exitX=0.5;exitY=1;exitDx=0;exitDy=0;" edge="1" parent="1" source="44"><mxGeometry relative="1" as="geometry"><mxPoint x="350" y="1070" as="targetPoint"/></mxGeometry></mxCell><mxCell id="44" value="Заявка помещается на прибор" style="rounded=0;whiteSpace=wrap;html=1;" vertex="1" parent="1"><mxGeometry x="290" y="959" width="120" height="60" as="geometry"/></mxCell><mxCell id="48" value="&lt;font style=&quot;font-size: 13px&quot;&gt;&lt;font color=&quot;#cc00cc&quot;&gt;БМС3&lt;br&gt;&lt;br&gt;&lt;br&gt;&lt;br&gt;&lt;/font&gt;&lt;br&gt;&lt;/font&gt;" style="rounded=1;whiteSpace=wrap;html=1;fillColor=none;dashed=1;align=left;strokeColor=#CC00CC;" vertex="1" parent="1"><mxGeometry x="713" y="264.5" width="130" height="82.5" as="geometry"/></mxCell><mxCell id="49" value="&lt;div&gt;&lt;span style=&quot;font-size: 14px&quot;&gt;&lt;font color=&quot;#cccc00&quot;&gt;&amp;nbsp;БМС2&lt;/font&gt;&lt;/span&gt;&lt;/div&gt;&lt;font&gt;&lt;div&gt;&lt;span style=&quot;font-size: 14px&quot;&gt;&lt;font color=&quot;#cccc00&quot;&gt;&lt;br&gt;&lt;/font&gt;&lt;/span&gt;&lt;/div&gt;&lt;div&gt;&lt;span style=&quot;font-size: 14px&quot;&gt;&lt;font color=&quot;#cccc00&quot;&gt;&lt;br&gt;&lt;/font&gt;&lt;/span&gt;&lt;/div&gt;&lt;div&gt;&lt;font color=&quot;#cccc00&quot;&gt;&lt;br&gt;&lt;/font&gt;&lt;/div&gt;&lt;div&gt;&lt;font color=&quot;#cccc00&quot;&gt;&lt;br&gt;&lt;/font&gt;&lt;/div&gt;&lt;div&gt;&lt;br&gt;&lt;/div&gt;&lt;/font&gt;" style="rounded=1;whiteSpace=wrap;html=1;fillColor=none;dashed=1;align=right;shadow=0;strokeColor=#CCCC00;" vertex="1" parent="1"><mxGeometry x="565" y="363" width="268" height="350.5" as="geometry"/></mxCell><mxCell id="50" value="Конец" style="ellipse;whiteSpace=wrap;html=1;" vertex="1" parent="1"><mxGeometry x="723" y="290" width="110" height="40" as="geometry"/></mxCell><mxCell id="51" style="edgeStyle=orthogonalEdgeStyle;rounded=0;orthogonalLoop=1;jettySize=auto;html=1;entryX=0.5;entryY=0;entryDx=0;entryDy=0;" edge="1" parent="1" source="53" target="56"><mxGeometry relative="1" as="geometry"/></mxCell><mxCell id="65" style="edgeStyle=orthogonalEdgeStyle;rounded=0;orthogonalLoop=1;jettySize=auto;html=1;exitX=1;exitY=0.5;exitDx=0;exitDy=0;entryX=0;entryY=0.5;entryDx=0;entryDy=0;" edge="1" parent="1" source="53" target="50"><mxGeometry relative="1" as="geometry"/></mxCell><mxCell id="53" value="ОС&lt;br&gt;освобождение&lt;br&gt;прибора" style="rhombus;whiteSpace=wrap;html=1;" vertex="1" parent="1"><mxGeometry x="573" y="270" width="120" height="80" as="geometry"/></mxCell><mxCell id="54" style="edgeStyle=orthogonalEdgeStyle;rounded=0;orthogonalLoop=1;jettySize=auto;html=1;exitX=0.5;exitY=1;exitDx=0;exitDy=0;" edge="1" parent="1" source="56" target="57"><mxGeometry relative="1" as="geometry"/></mxCell><mxCell id="55" style="edgeStyle=orthogonalEdgeStyle;rounded=0;orthogonalLoop=1;jettySize=auto;html=1;entryX=0.5;entryY=0;entryDx=0;entryDy=0;" edge="1" parent="1" source="56" target="58"><mxGeometry relative="1" as="geometry"><Array as="points"><mxPoint x="738" y="411"/></Array></mxGeometry></mxCell><mxCell id="56" value="Буфер пуст" style="rhombus;whiteSpace=wrap;html=1;" vertex="1" parent="1"><mxGeometry x="573" y="371" width="120" height="80" as="geometry"/></mxCell><mxCell id="80" style="edgeStyle=orthogonalEdgeStyle;rounded=0;orthogonalLoop=1;jettySize=auto;html=1;exitX=0.5;exitY=1;exitDx=0;exitDy=0;" edge="1" parent="1" source="57"><mxGeometry relative="1" as="geometry"><mxPoint x="633" y="1070" as="targetPoint"/></mxGeometry></mxCell><mxCell id="57" value="Прибор в простой.&lt;br&gt;Признак = 1" style="rounded=0;whiteSpace=wrap;html=1;glass=0;" vertex="1" parent="1"><mxGeometry x="573" y="491" width="120" height="69" as="geometry"/></mxCell><mxCell id="67" style="edgeStyle=orthogonalEdgeStyle;rounded=0;orthogonalLoop=1;jettySize=auto;html=1;exitX=0.5;exitY=1;exitDx=0;exitDy=0;" edge="1" parent="1" source="58"><mxGeometry relative="1" as="geometry"><mxPoint x="330" y="150" as="targetPoint"/><Array as="points"><mxPoint x="738" y="1070"/><mxPoint x="40" y="1070"/><mxPoint x="40" y="150"/></Array></mxGeometry></mxCell><mxCell id="58" value="&lt;font style=&quot;font-size: 12px&quot;&gt;На прибор ставится&lt;br&gt;заявка, которая с наивысшим приоритетом. Если приоритет одинаковый&amp;nbsp;выбрать последнюю поступившую&lt;/font&gt;" style="rounded=0;whiteSpace=wrap;html=1;" vertex="1" parent="1"><mxGeometry x="653" y="578" width="170" height="103" as="geometry"/></mxCell><mxCell id="59" value="да" style="text;html=1;strokeColor=none;fillColor=none;align=center;verticalAlign=middle;whiteSpace=wrap;rounded=0;" vertex="1" parent="1"><mxGeometry x="635" y="460" width="40" height="20" as="geometry"/></mxCell><mxCell id="62" value="нет" style="text;html=1;strokeColor=none;fillColor=none;align=center;verticalAlign=middle;whiteSpace=wrap;rounded=0;" vertex="1" parent="1"><mxGeometry x="693" y="390" width="40" height="20" as="geometry"/></mxCell><mxCell id="89" value="нет" style="text;html=1;strokeColor=none;fillColor=none;align=center;verticalAlign=middle;whiteSpace=wrap;rounded=0;" vertex="1" parent="1"><mxGeometry x="450" y="661" width="40" height="20" as="geometry"/></mxCell><mxCell id="90" value="да" style="text;html=1;strokeColor=none;fillColor=none;align=center;verticalAlign=middle;whiteSpace=wrap;rounded=0;" vertex="1" parent="1"><mxGeometry x="252" y="773" width="40" height="20" as="geometry"/></mxCell><mxCell id="91" value="нет" style="text;html=1;strokeColor=none;fillColor=none;align=center;verticalAlign=middle;whiteSpace=wrap;rounded=0;" vertex="1" parent="1"><mxGeometry x="410" y="774" width="40" height="20" as="geometry"/></mxCell></root></mxGraphModel></diagram></mxfile>